<svg width="100" height="100" fill="none" xmlns="http://www.w3.org/2000/svg"><circle cx="50" cy="50" r="50" fill="#5832C1"/><g filter="url(#a)"><path d="M22.303 41.32c.063-.18.128-.362.187-.544.515-1.628 1.946-2.75 3.656-2.779 1.992-.032 3.987-.04 5.979 0a3.903 3.903 0 0 1 3.845 3.923c.016 8.758.015 17.517 0 26.274-.002 2.216-1.712 3.92-3.98 3.971-1.903.043-3.808.04-5.712 0-1.949-.04-3.392-1.241-3.878-3.135-.022-.084-.064-.164-.097-.245V41.32Z" fill="url(#b)"/></g><path d="M39.397 68.532v-.584c0-9.027.003-18.054-.01-27.08 0-.425.14-.659.483-.896 2.078-1.427 3.98-3.052 5.549-5.046 1.692-2.15 2.668-4.539 2.634-7.327-.014-1.13.098-2.282.317-3.392.465-2.365 1.88-3.238 4.215-2.593 3.413.943 5.425 3.28 6.02 6.703.641 3.69.025 7.296-1.234 10.8-.049.135-.101.266-.146.4-.01.03.002.067.01.174h.556c3.346 0 6.692-.016 10.04.004 4.528.027 8.118 3.001 9.023 7.43.31 1.519.067 3.009-.193 4.501-.778 4.468-1.565 8.933-2.316 13.405-.75 4.473-4.476 7.71-9.017 7.692-3.095-.011-6.198-.022-9.284-.23-5.494-.37-10.845-1.47-15.94-3.636-.23-.097-.452-.21-.703-.326h-.004Z" fill="#0E0C14"/><path d="M39.397 68.532v-.584c0-9.027.003-18.054-.01-27.08 0-.425.14-.659.483-.896 2.078-1.427 3.98-3.052 5.549-5.046 1.692-2.15 2.668-4.539 2.634-7.327-.014-1.13.098-2.282.317-3.392.465-2.365 1.88-3.238 4.215-2.593 3.413.943 5.425 3.28 6.02 6.703.641 3.69.025 7.296-1.234 10.8-.049.135-.101.266-.146.4-.01.03.002.067.01.174h.556c3.346 0 6.692-.016 10.04.004 4.528.027 8.118 3.001 9.023 7.43.31 1.519.067 3.009-.193 4.501-.778 4.468-1.565 8.933-2.316 13.405-.75 4.473-4.476 7.71-9.017 7.692-3.095-.011-6.198-.022-9.284-.23-5.494-.37-10.845-1.47-15.94-3.636-.23-.097-.452-.21-.703-.326h-.004Z" fill="url(#c)"/><g filter="url(#d)"><path d="M39.397 68.532v-.584c0-9.027.003-18.054-.01-27.08 0-.425.14-.659.483-.896 2.078-1.427 3.98-3.052 5.549-5.046 1.692-2.15 2.668-4.539 2.634-7.327-.014-1.13.098-2.282.317-3.392.465-2.365 1.88-3.238 4.215-2.593 3.413.943 5.425 3.28 6.02 6.703.641 3.69.025 7.296-1.234 10.8-.049.135-.101.266-.146.4-.01.03.002.067.01.174h.556c3.346 0 6.692-.016 10.04.004 4.528.027 8.118 3.001 9.023 7.43.31 1.519.067 3.009-.193 4.501-.778 4.468-1.565 8.933-2.316 13.405-.75 4.473-4.476 7.71-9.017 7.692-3.095-.011-6.198-.022-9.284-.23-5.494-.37-10.845-1.47-15.94-3.636-.23-.097-.452-.21-.703-.326h-.004Z" fill="url(#e)"/></g><defs><linearGradient id="b" x1="29.142" y1="37.97" x2="29.142" y2="72.196" gradientUnits="userSpaceOnUse"><stop stop-color="#AE9AFF"/><stop offset=".151" stop-color="#A48EFF"/><stop offset="1" stop-color="#6C50EF"/></linearGradient><linearGradient id="c" x1="58.193" y1="21.408" x2="58.193" y2="72.723" gradientUnits="userSpaceOnUse"><stop stop-color="#AE9AFF"/><stop offset=".151" stop-color="#A48EFF"/><stop offset="1" stop-color="#8064FF"/></linearGradient><linearGradient id="e" x1="58.193" y1="21.408" x2="58.193" y2="72.723" gradientUnits="userSpaceOnUse"><stop stop-color="#AE9AFF"/><stop offset=".151" stop-color="#A48EFF"/><stop offset="1" stop-color="#6C50EF"/></linearGradient><filter id="a" x="22.303" y="37.97" width="13.679" height="38.226" filterUnits="userSpaceOnUse" color-interpolation-filters="sRGB"><feFlood flood-opacity="0" result="BackgroundImageFix"/><feBlend in="SourceGraphic" in2="BackgroundImageFix" result="shape"/><feColorMatrix in="SourceAlpha" values="0 0 0 0 0 0 0 0 0 0 0 0 0 0 0 0 0 0 127 0" result="hardAlpha"/><feOffset dy="4"/><feGaussianBlur stdDeviation="5"/><feComposite in2="hardAlpha" operator="arithmetic" k2="-1" k3="1"/><feColorMatrix values="0 0 0 0 1 0 0 0 0 1 0 0 0 0 1 0 0 0 0.3 0"/><feBlend in2="shape" result="effect1_innerShadow_1862_715"/></filter><filter id="d" x="39.387" y="21.408" width="37.613" height="55.315" filterUnits="userSpaceOnUse" color-interpolation-filters="sRGB"><feFlood flood-opacity="0" result="BackgroundImageFix"/><feBlend in="SourceGraphic" in2="BackgroundImageFix" result="shape"/><feColorMatrix in="SourceAlpha" values="0 0 0 0 0 0 0 0 0 0 0 0 0 0 0 0 0 0 127 0" result="hardAlpha"/><feOffset dy="4"/><feGaussianBlur stdDeviation="5"/><feComposite in2="hardAlpha" operator="arithmetic" k2="-1" k3="1"/><feColorMatrix values="0 0 0 0 1 0 0 0 0 1 0 0 0 0 1 0 0 0 0.3 0"/><feBlend in2="shape" result="effect1_innerShadow_1862_715"/></filter></defs></svg>