<svg width="19" height="19" fill="none" xmlns="http://www.w3.org/2000/svg"><path d="M0 17.005c.11-.582.482-.989.882-1.39 1.97-1.98 3.93-3.97 5.894-5.954.052-.052.123-.084.193-.13-.09-.096-.135-.146-.182-.193L.622 3.102A1.818 1.818 0 0 1 .515.65 1.778 1.778 0 0 1 3.188.566c2.036 2.045 4.07 4.092 6.105 6.138.061.062.117.128.19.21.066-.064.119-.113.17-.164C11.676 4.703 13.7 2.653 15.725.607c.998-1.007 2.637-.617 3.025.727.195.675.054 1.29-.445 1.796-2.028 2.053-4.058 4.105-6.087 6.157-.052.052-.11.1-.185.168l.203.207c2.057 2.069 4.113 4.138 6.172 6.204.388.39.6.85.59 1.406a1.748 1.748 0 0 1-1.709 1.724 2.08 2.08 0 0 1-1.612-.659c-2.004-2.042-4.02-4.072-6.03-6.108-.052-.052-.092-.117-.187-.238-.066.106-.096.18-.148.233a9009.037 9009.037 0 0 1-6.138 6.21c-.627.636-1.699.752-2.444.268-.382-.249-.581-.619-.69-1.05-.01-.042-.027-.081-.04-.121v-.526Z" fill="#353049"/></svg>