<svg data-name="Layer 1" xmlns="http://www.w3.org/2000/svg" viewBox="0 0 257.64 129.13"><path d="M167.21 0c20.51.47 44.83 4.2 68.12 13.39 2.88 1.14 5.68 2.5 8.42 3.93 12.76 6.65 17.54 22.36 10.94 35.25-5.46 10.67-12.65 20.11-20.56 29.02-13.21 14.87-27.92 28.03-44.89 38.49-4.15 2.55-8.6 4.64-13 6.75-9.01 4.31-22.28 2.88-30.64-7.04-6.7-7.96-11.87-16.81-16.13-26.23-6.46-14.26-10.95-29.12-13.17-44.62-1.29-8.98-2.1-18.06-.08-27 2.21-9.8 8.59-16.16 18.16-18.94 9.24-2.69 18.84-3.05 32.83-3Z" style="fill:#fbae17"/><path d="M7.73 56.7h13.35v6.72H7.73v10.97H0V43.3h23.18v6.81H7.73v6.58Zm26.19 8.69v9.01h-7.73V43.31h13.62c7.68 0 12.85 4.21 12.85 10.93 0 4.34-2.24 7.77-5.94 9.65l8 10.51h-9.33l-6.67-9.01h-4.8Zm5.71-6.95c2.97 0 5.35-1.65 5.35-4.21s-2.38-4.11-5.35-4.11h-5.71v8.32h5.71Zm25.24-2.74h13.76v6.58H64.87v5.39h15.77v6.72h-23.5V43.3h23.5v6.72H64.87v5.67Zm27.43 0h13.76v6.58H92.3v5.39h15.77v6.72h-23.5V43.3h23.5v6.72H92.3v5.67Z" style="fill:#fff"/><path d="M142.76 43.27c8.09 0 13.17 4.39 13.17 11.38s-5.3 11.79-13.81 11.79h-4.16v7.91h-7.73V43.26h12.53Zm-.18 16.41c3.43 0 5.62-1.97 5.62-5.03 0-2.79-2.19-4.57-5.62-4.57h-4.62v9.6h4.62Zm39.17 14.67h-23.09V43.26h7.73v24.28h15.36v6.81Zm11.3-5.35-2.06 5.35h-8.23l13.21-31.27h7.36l13.17 31.27h-8.18l-2.1-5.35h-13.17Zm6.58-16.92-4.02 10.33h8.05l-4.02-10.33Zm31.22 12.9v9.37h-7.77v-9.37l-12.3-21.72h8.55l7.59 13.53 7.63-13.53h8.55l-12.25 21.72Z"/></svg>